<svg width="24" height="24" viewBox="0 0 24 24" fill="none" xmlns="http://www.w3.org/2000/svg">
<path d="M9.87964 9.88086C9.58489 10.1555 9.34848 10.4867 9.18451 10.8547C9.02055 11.2227 8.93238 11.62 8.92527 12.0228C8.91816 12.4256 8.99226 12.8257 9.14315 13.1992C9.29403 13.5728 9.51861 13.9121 9.80348 14.197C10.0884 14.4819 10.4277 14.7065 10.8012 14.8574C11.1748 15.0082 11.5749 15.0823 11.9777 15.0752C12.3805 15.0681 12.7778 14.98 13.1458 14.816C13.5138 14.652 13.845 14.4156 14.1196 14.1209" stroke="black" stroke-width="2" stroke-linecap="round" stroke-linejoin="round"/>
<path d="M10.7305 5.08C11.1518 5.02751 11.5759 5.00079 12.0005 5C19.0005 5 22.0005 12 22.0005 12C21.5534 12.9571 20.9927 13.8569 20.3305 14.68" stroke="black" stroke-width="2" stroke-linecap="round" stroke-linejoin="round"/>
<path d="M6.61 6.60938C4.62125 7.964 3.02987 9.82463 2 11.9994C2 11.9994 5 18.9994 12 18.9994C13.9159 19.0045 15.7908 18.4445 17.39 17.3894" stroke="black" stroke-width="2" stroke-linecap="round" stroke-linejoin="round"/>
<path d="M2 2L22 22" stroke="black" stroke-width="2" stroke-linecap="round" stroke-linejoin="round"/>
</svg>
