<svg width="314" height="78" viewBox="0 0 314 78" fill="none" xmlns="http://www.w3.org/2000/svg">
<path d="M52.08 27.28C55.36 28.56 59.68 31.28 59.68 44.16V56H44.64V44.24C44.64 40.08 41.36 38.08 37.12 38.08L17.52 38.16V56H2.4V-3.8147e-06H38.64C51.44 -3.8147e-06 59.12 4.56 59.12 14.4C59.12 21.52 55.36 23.28 51.84 24.56C49.84 25.52 46.64 26.32 44.4 26.32V26.48C45.6 26.48 46.48 26.4 46.8 26.4C48.24 26.4 50.32 26.64 52.08 27.28ZM36.72 12.08H17.52V25.84H34C38.96 25.84 46.08 24.16 46.08 19.12C46.08 13.44 41.76 12.08 36.72 12.08ZM87.9494 15.76C100.029 15.76 112.109 19.6 112.109 31.44V42.64C112.109 44.64 112.989 45.2 115.149 45.2H116.029V56H106.349C101.469 56 97.0694 52.24 97.0694 48.16V45.44C96.5094 51.76 92.5094 54.32 88.6694 55.6C86.6694 56.32 84.4294 56.64 81.8694 56.64C80.9094 56.64 76.5894 56.96 72.1894 54.8C67.7094 52.72 64.5094 49.2 64.5094 44.64C64.5094 26.96 97.0694 35.68 97.0694 30.48C97.0694 27.6 93.6294 26.32 87.9494 26.32C83.0694 26.32 78.1894 26.88 78.1894 30.72L64.7494 30.56C64.9894 20.4 77.2294 15.76 87.9494 15.76ZM80.1094 44.16C80.1094 47.6 84.9094 47.6 86.0294 47.6C87.6294 47.6 90.1094 47.36 92.6694 46.32C95.2294 45.36 97.0694 43.68 97.0694 41.84V38.24C94.0294 41.28 80.1094 38.08 80.1094 44.16ZM137.318 23.36C140.918 17.68 147.318 15.36 154.598 15.36C163.878 15.36 174.118 21.68 174.118 38.08V56H159.078V38.08C159.078 32.64 155.078 28.24 148.198 28.24C142.438 28.24 135.878 32.32 135.878 41.04V56H120.838V-3.8147e-06H135.878V22.96C135.878 24.8 135.558 27.2 134.998 28.88L135.158 28.96C135.718 27.12 136.278 24.88 137.318 23.36ZM215.844 50.48C212.324 54.24 206.404 56.48 201.044 56.48C186.404 56.48 178.884 49.84 178.884 36C178.884 22.16 186.404 15.6 201.044 15.52C206.484 15.52 212.244 18.08 215.844 21.84C217.124 23.12 217.924 25.44 218.484 27.12H218.644C218.084 25.28 217.604 23.04 217.604 21.2V-3.8147e-06H232.564V56H217.604V51.12C217.604 49.28 218.084 46.96 218.644 45.28L218.484 45.2C217.924 46.88 217.124 49.2 215.844 50.48ZM204.644 44.8C213.044 44.8 217.604 40.72 217.604 36C217.604 31.28 213.044 26.32 204.644 26.32C195.924 26.32 193.764 31.52 193.764 36C193.764 40.4 196.004 44.8 204.644 44.8ZM252.44 11.84H237.4V-3.8147e-06H252.44V11.84ZM237.56 16H252.28V56H237.56V16ZM311.164 36C311.164 49.84 298.604 56.48 284.204 56.48C269.804 56.48 257.244 49.84 257.244 36C257.244 22.16 269.804 15.52 284.204 15.52C298.604 15.52 311.164 22.24 311.164 36ZM296.124 36C296.124 30.64 290.524 27.04 284.204 27.04C278.044 27.04 272.284 30.72 272.284 36C272.284 41.52 277.564 44.8 284.204 44.8C290.604 44.8 296.124 41.44 296.124 36Z" fill="white"/>
<path d="M13.968 74H11.44L10.576 71.696H5.84L4.96 74H2.48L6.704 62.8H9.744L13.968 74ZM10.272 70.784L8.192 65.248L6.464 69.792C7.104 69.792 7.6 69.792 8 69.808C8.384 69.824 9.024 69.84 9.552 69.92C9.792 69.984 10.032 70.272 10.272 70.784ZM20.0581 70C20.0581 67.232 22.2981 65.904 24.9061 65.904C26.8901 65.904 29.1461 66.96 29.4021 69.104L27.2901 69.248C27.0341 68.336 26.1861 67.68 24.9061 67.68C23.3701 67.68 22.3461 68.56 22.3461 70C22.3461 71.424 23.3701 72.304 24.8261 72.304H24.9221C26.1861 72.256 26.9381 71.776 27.2741 70.816L29.4021 70.944C29.1461 73.04 26.8901 74.096 24.9061 74.096C22.2981 74.096 20.0581 72.768 20.0581 70ZM32.659 64.656H30.355V62.8H32.659V64.656ZM30.387 66H32.627V74H30.387V66ZM36.6286 65.952H39.9086V67.824H37.5086V71.28C37.5086 71.984 37.8766 72.128 38.3726 72.128H40.3086V74H38.0526C35.8286 74 35.2366 72.912 35.2366 70.768V67.824H33.6206V65.952H34.1006C34.9326 65.952 35.7646 64.464 35.7646 63.216H38.0526C38.0366 63.392 38.0206 63.584 37.9886 63.776C37.9086 64.112 37.7966 64.544 37.5406 64.944C37.3006 65.28 36.9166 65.584 36.5966 65.776C36.2926 65.92 35.8606 65.984 35.5406 66.032V66.064C35.8606 66.016 36.2926 65.952 36.6286 65.952ZM45.9705 70.624L47.9065 66H50.4025L46.4985 75.136C45.8105 76.928 44.4185 77.296 43.4905 77.296H41.0745V75.616H42.2745C42.6905 75.616 43.9065 75.488 44.1625 74.816L44.4665 73.888L41.0585 66H43.5545L45.4905 70.624C45.6665 70.96 45.7305 71.424 45.7305 71.792H45.7625C45.7625 71.424 45.8265 70.96 45.9705 70.624ZM64.512 67.856C65.024 66.736 65.792 65.872 67.152 65.872C68.896 65.872 69.952 67.04 69.952 69.584V74H67.664V70.256C67.664 68.864 67.056 68.176 66.144 68.176C65.392 68.176 64.352 68.848 64.352 70.912V74H62.064V70.256C62.064 68.8 61.52 68.176 60.624 68.176C59.92 68.176 58.768 68.832 58.768 70.912V74H56.48V66H58.768V67.728C58.768 68.096 58.704 68.56 58.624 68.928H58.656C58.736 68.56 58.816 68.096 58.992 67.76C59.552 66.464 60.544 65.872 61.52 65.872C63.168 65.872 63.84 66.896 64.144 67.824C64.272 68.192 64.24 68.656 64.224 69.024H64.256C64.272 68.656 64.368 68.192 64.512 67.856ZM77.0615 72.128C76.4695 73.52 75.3015 74.128 74.2135 74.128C71.8295 74.128 70.9175 72.368 70.9175 69.648V66H73.2055V69.664C73.2055 71.168 73.9575 71.84 75.0935 71.84C75.9415 71.84 77.2535 71.296 77.2535 68.992V66H79.5415V74H77.2535V72.16C77.2535 71.84 77.3175 71.408 77.3815 71.088H77.3495C77.2855 71.408 77.2055 71.824 77.0615 72.128ZM80.4956 71.552L82.7356 71.28C82.8476 72.16 83.6476 72.496 84.9756 72.496C86.3356 72.496 87.0876 72.112 87.0876 71.392C87.0876 70.176 80.6396 71.504 80.6396 68.416C80.6396 66.128 83.8716 65.888 84.9916 65.888C86.6716 65.888 89.0716 66.544 89.1516 68.304L87.1356 68.528C87.0236 67.776 86.3036 67.504 84.9436 67.504C83.6476 67.504 82.9276 67.728 82.9276 68.512C82.9276 69.712 89.3756 68.384 89.3756 71.44C89.3756 73.888 86.0636 74.096 84.8956 74.096C83.8236 74.096 80.6236 73.744 80.4956 71.552ZM92.6434 64.656H90.3394V62.8H92.6434V64.656ZM90.3714 66H92.6114V74H90.3714V66ZM93.605 70C93.605 67.232 95.845 65.904 98.453 65.904C100.437 65.904 102.693 66.96 102.949 69.104L100.837 69.248C100.581 68.336 99.733 67.68 98.453 67.68C96.917 67.68 95.893 68.56 95.893 70C95.893 71.424 96.917 72.304 98.373 72.304H98.469C99.733 72.256 100.485 71.776 100.821 70.816L102.949 70.944C102.693 73.04 100.437 74.096 98.453 74.096C95.845 74.096 93.605 72.768 93.605 70ZM109.027 71.552L111.267 71.28C111.379 72.16 112.179 72.496 113.507 72.496C114.867 72.496 115.619 72.112 115.619 71.392C115.619 70.176 109.171 71.504 109.171 68.416C109.171 66.128 112.403 65.888 113.523 65.888C115.203 65.888 117.603 66.544 117.683 68.304L115.667 68.528C115.555 67.776 114.835 67.504 113.475 67.504C112.179 67.504 111.459 67.728 111.459 68.512C111.459 69.712 117.907 68.384 117.907 71.44C117.907 73.888 114.595 74.096 113.427 74.096C112.355 74.096 109.155 73.744 109.027 71.552ZM123.033 70.624L124.969 66H127.465L123.561 75.136C122.873 76.928 121.481 77.296 120.553 77.296H118.137V75.616H119.337C119.753 75.616 120.969 75.488 121.225 74.816L121.529 73.888L118.121 66H120.617L122.553 70.624C122.729 70.96 122.793 71.424 122.793 71.792H122.825C122.825 71.424 122.889 70.96 123.033 70.624ZM130.898 67.952C131.538 66.496 132.85 65.872 133.938 65.872C136.146 65.872 137.074 67.632 137.074 70.352V74H134.802V70.336C134.802 68.928 134.082 68.16 133.09 68.16C132.146 68.16 130.706 68.704 130.706 71.008V74H128.418V66H130.706V67.904C130.706 68.24 130.642 68.672 130.578 68.992H130.61C130.674 68.672 130.754 68.224 130.898 67.952ZM141.035 65.952H144.315V67.824H141.915V71.28C141.915 71.984 142.283 72.128 142.779 72.128H144.715V74H142.459C140.235 74 139.643 72.912 139.643 70.768V67.824H138.027V65.952H138.507C139.339 65.952 140.171 64.464 140.171 63.216H142.459C142.443 63.392 142.427 63.584 142.395 63.776C142.315 64.112 142.203 64.544 141.947 64.944C141.707 65.28 141.323 65.584 141.003 65.776C140.699 65.92 140.267 65.984 139.947 66.032V66.064C140.267 66.016 140.699 65.952 141.035 65.952ZM148.244 67.472C148.964 66.336 150.212 65.872 151.54 65.872C153.524 65.872 155.06 67.408 155.06 70.112V74H152.772V70.112C152.772 68.816 152.02 67.872 150.66 67.872C149.668 67.872 147.956 68.624 147.956 71.008V74H145.668V62.8H147.956V67.392C147.956 67.76 147.892 68.24 147.78 68.576L147.812 68.592C147.924 68.224 148.036 67.776 148.244 67.472ZM165.547 70C165.547 70.24 165.531 70.24 165.515 70.448H158.155C158.267 71.072 158.571 71.552 159.035 71.872C159.483 72.208 160.187 72.368 160.827 72.368H160.955C161.579 72.368 162.091 72.304 162.491 72.112C162.875 71.92 163.259 71.6 163.451 71.072L165.547 71.184C165.339 72.352 164.651 73.072 163.819 73.504C162.987 73.952 161.995 74.096 160.891 74.096C158.267 74.096 156.027 72.768 156.027 70C156.027 67.232 158.267 65.904 160.891 65.904C163.515 65.904 165.547 67.248 165.547 70ZM160.955 67.536H160.859C160.267 67.536 159.467 67.728 158.955 68.176C158.443 68.64 158.155 69.36 158.155 70.256V70.448C158.171 69.872 158.331 69.664 158.571 69.456C158.811 69.248 159.211 69.168 159.547 69.168H163.435C163.259 68.592 163.019 68.224 162.619 67.952C162.219 67.68 161.595 67.536 160.955 67.536ZM166.511 71.552L168.751 71.28C168.863 72.16 169.663 72.496 170.991 72.496C172.351 72.496 173.103 72.112 173.103 71.392C173.103 70.176 166.655 71.504 166.655 68.416C166.655 66.128 169.887 65.888 171.007 65.888C172.687 65.888 175.087 66.544 175.167 68.304L173.151 68.528C173.039 67.776 172.319 67.504 170.959 67.504C169.663 67.504 168.943 67.728 168.943 68.512C168.943 69.712 175.391 68.384 175.391 71.44C175.391 73.888 172.079 74.096 170.911 74.096C169.839 74.096 166.639 73.744 166.511 71.552ZM178.659 64.656H176.355V62.8H178.659V64.656ZM176.387 66H178.627V74H176.387V66ZM184.533 67.792H179.765V66H188.037V67.76L183.029 71.856C182.757 72.064 182.325 72.256 181.989 72.384V72.416C182.325 72.288 182.805 72.208 183.173 72.208H188.085V74H179.621V72.288L184.677 68.144C184.933 67.952 185.381 67.744 185.717 67.616V67.584C185.349 67.712 184.901 67.792 184.533 67.792ZM198.078 70C198.078 70.24 198.062 70.24 198.046 70.448H190.686C190.798 71.072 191.102 71.552 191.566 71.872C192.014 72.208 192.718 72.368 193.358 72.368H193.486C194.11 72.368 194.622 72.304 195.022 72.112C195.406 71.92 195.79 71.6 195.982 71.072L198.078 71.184C197.87 72.352 197.182 73.072 196.35 73.504C195.518 73.952 194.526 74.096 193.422 74.096C190.798 74.096 188.558 72.768 188.558 70C188.558 67.232 190.798 65.904 193.422 65.904C196.046 65.904 198.078 67.248 198.078 70ZM193.486 67.536H193.39C192.798 67.536 191.998 67.728 191.486 68.176C190.974 68.64 190.686 69.36 190.686 70.256V70.448C190.702 69.872 190.862 69.664 191.102 69.456C191.342 69.248 191.742 69.168 192.078 69.168H195.966C195.79 68.592 195.55 68.224 195.15 67.952C194.75 67.68 194.126 67.536 193.486 67.536ZM205.009 66V67.856H202.481C201.585 67.856 201.409 68.048 201.409 69.152V74H199.121V68.288C199.121 66.72 199.777 66 201.409 66H205.009Z" fill="white"/>
</svg>
