<svg width="314" height="96" viewBox="0 0 314 96" fill="none" xmlns="http://www.w3.org/2000/svg">
<path d="M52.08 43.28C55.36 44.56 59.68 47.28 59.68 60.16V72H44.64V60.24C44.64 56.08 41.36 54.08 37.12 54.08L17.52 54.16V72H2.4V16H38.64C51.44 16 59.12 20.56 59.12 30.4C59.12 37.52 55.36 39.28 51.84 40.56C49.84 41.52 46.64 42.32 44.4 42.32V42.48C45.6 42.48 46.48 42.4 46.8 42.4C48.24 42.4 50.32 42.64 52.08 43.28ZM36.72 28.08H17.52V41.84H34C38.96 41.84 46.08 40.16 46.08 35.12C46.08 29.44 41.76 28.08 36.72 28.08ZM87.9494 31.76C100.029 31.76 112.109 35.6 112.109 47.44V58.64C112.109 60.64 112.989 61.2 115.149 61.2H116.029V72H106.349C101.469 72 97.0694 68.24 97.0694 64.16V61.44C96.5094 67.76 92.5094 70.32 88.6694 71.6C86.6694 72.32 84.4294 72.64 81.8694 72.64C80.9094 72.64 76.5894 72.96 72.1894 70.8C67.7094 68.72 64.5094 65.2 64.5094 60.64C64.5094 42.96 97.0694 51.68 97.0694 46.48C97.0694 43.6 93.6294 42.32 87.9494 42.32C83.0694 42.32 78.1894 42.88 78.1894 46.72L64.7494 46.56C64.9894 36.4 77.2294 31.76 87.9494 31.76ZM80.1094 60.16C80.1094 63.6 84.9094 63.6 86.0294 63.6C87.6294 63.6 90.1094 63.36 92.6694 62.32C95.2294 61.36 97.0694 59.68 97.0694 57.84V54.24C94.0294 57.28 80.1094 54.08 80.1094 60.16ZM137.318 39.36C140.918 33.68 147.318 31.36 154.598 31.36C163.878 31.36 174.118 37.68 174.118 54.08V72H159.078V54.08C159.078 48.64 155.078 44.24 148.198 44.24C142.438 44.24 135.878 48.32 135.878 57.04V72H120.838V16H135.878V38.96C135.878 40.8 135.558 43.2 134.998 44.88L135.158 44.96C135.718 43.12 136.278 40.88 137.318 39.36ZM215.844 66.48C212.324 70.24 206.404 72.48 201.044 72.48C186.404 72.48 178.884 65.84 178.884 52C178.884 38.16 186.404 31.6 201.044 31.52C206.484 31.52 212.244 34.08 215.844 37.84C217.124 39.12 217.924 41.44 218.484 43.12H218.644C218.084 41.28 217.604 39.04 217.604 37.2V16H232.564V72H217.604V67.12C217.604 65.28 218.084 62.96 218.644 61.28L218.484 61.2C217.924 62.88 217.124 65.2 215.844 66.48ZM204.644 60.8C213.044 60.8 217.604 56.72 217.604 52C217.604 47.28 213.044 42.32 204.644 42.32C195.924 42.32 193.764 47.52 193.764 52C193.764 56.4 196.004 60.8 204.644 60.8ZM252.44 27.84H237.4V16H252.44V27.84ZM237.56 32H252.28V72H237.56V32ZM311.164 52C311.164 65.84 298.604 72.48 284.204 72.48C269.804 72.48 257.244 65.84 257.244 52C257.244 38.16 269.804 31.52 284.204 31.52C298.604 31.52 311.164 38.24 311.164 52ZM296.124 52C296.124 46.64 290.524 43.04 284.204 43.04C278.044 43.04 272.284 46.72 272.284 52C272.284 57.52 277.564 60.8 284.204 60.8C290.604 60.8 296.124 57.44 296.124 52Z" fill="white"/>
<path d="M13.968 90H11.44L10.576 87.696H5.84L4.96 90H2.48L6.704 78.8H9.744L13.968 90ZM10.272 86.784L8.192 81.248L6.464 85.792C7.104 85.792 7.6 85.792 8 85.808C8.384 85.824 9.024 85.84 9.552 85.92C9.792 85.984 10.032 86.272 10.272 86.784ZM20.0581 86C20.0581 83.232 22.2981 81.904 24.9061 81.904C26.8901 81.904 29.1461 82.96 29.4021 85.104L27.2901 85.248C27.0341 84.336 26.1861 83.68 24.9061 83.68C23.3701 83.68 22.3461 84.56 22.3461 86C22.3461 87.424 23.3701 88.304 24.8261 88.304H24.9221C26.1861 88.256 26.9381 87.776 27.2741 86.816L29.4021 86.944C29.1461 89.04 26.8901 90.096 24.9061 90.096C22.2981 90.096 20.0581 88.768 20.0581 86ZM32.659 80.656H30.355V78.8H32.659V80.656ZM30.387 82H32.627V90H30.387V82ZM36.6286 81.952H39.9086V83.824H37.5086V87.28C37.5086 87.984 37.8766 88.128 38.3726 88.128H40.3086V90H38.0526C35.8286 90 35.2366 88.912 35.2366 86.768V83.824H33.6206V81.952H34.1006C34.9326 81.952 35.7646 80.464 35.7646 79.216H38.0526C38.0366 79.392 38.0206 79.584 37.9886 79.776C37.9086 80.112 37.7966 80.544 37.5406 80.944C37.3006 81.28 36.9166 81.584 36.5966 81.776C36.2926 81.92 35.8606 81.984 35.5406 82.032V82.064C35.8606 82.016 36.2926 81.952 36.6286 81.952ZM45.9705 86.624L47.9065 82H50.4025L46.4985 91.136C45.8105 92.928 44.4185 93.296 43.4905 93.296H41.0745V91.616H42.2745C42.6905 91.616 43.9065 91.488 44.1625 90.816L44.4665 89.888L41.0585 82H43.5545L45.4905 86.624C45.6665 86.96 45.7305 87.424 45.7305 87.792H45.7625C45.7625 87.424 45.8265 86.96 45.9705 86.624ZM64.512 83.856C65.024 82.736 65.792 81.872 67.152 81.872C68.896 81.872 69.952 83.04 69.952 85.584V90H67.664V86.256C67.664 84.864 67.056 84.176 66.144 84.176C65.392 84.176 64.352 84.848 64.352 86.912V90H62.064V86.256C62.064 84.8 61.52 84.176 60.624 84.176C59.92 84.176 58.768 84.832 58.768 86.912V90H56.48V82H58.768V83.728C58.768 84.096 58.704 84.56 58.624 84.928H58.656C58.736 84.56 58.816 84.096 58.992 83.76C59.552 82.464 60.544 81.872 61.52 81.872C63.168 81.872 63.84 82.896 64.144 83.824C64.272 84.192 64.24 84.656 64.224 85.024H64.256C64.272 84.656 64.368 84.192 64.512 83.856ZM77.0615 88.128C76.4695 89.52 75.3015 90.128 74.2135 90.128C71.8295 90.128 70.9175 88.368 70.9175 85.648V82H73.2055V85.664C73.2055 87.168 73.9575 87.84 75.0935 87.84C75.9415 87.84 77.2535 87.296 77.2535 84.992V82H79.5415V90H77.2535V88.16C77.2535 87.84 77.3175 87.408 77.3815 87.088H77.3495C77.2855 87.408 77.2055 87.824 77.0615 88.128ZM80.4956 87.552L82.7356 87.28C82.8476 88.16 83.6476 88.496 84.9756 88.496C86.3356 88.496 87.0876 88.112 87.0876 87.392C87.0876 86.176 80.6396 87.504 80.6396 84.416C80.6396 82.128 83.8716 81.888 84.9916 81.888C86.6716 81.888 89.0716 82.544 89.1516 84.304L87.1356 84.528C87.0236 83.776 86.3036 83.504 84.9436 83.504C83.6476 83.504 82.9276 83.728 82.9276 84.512C82.9276 85.712 89.3756 84.384 89.3756 87.44C89.3756 89.888 86.0636 90.096 84.8956 90.096C83.8236 90.096 80.6236 89.744 80.4956 87.552ZM92.6434 80.656H90.3394V78.8H92.6434V80.656ZM90.3714 82H92.6114V90H90.3714V82ZM93.605 86C93.605 83.232 95.845 81.904 98.453 81.904C100.437 81.904 102.693 82.96 102.949 85.104L100.837 85.248C100.581 84.336 99.733 83.68 98.453 83.68C96.917 83.68 95.893 84.56 95.893 86C95.893 87.424 96.917 88.304 98.373 88.304H98.469C99.733 88.256 100.485 87.776 100.821 86.816L102.949 86.944C102.693 89.04 100.437 90.096 98.453 90.096C95.845 90.096 93.605 88.768 93.605 86ZM109.027 87.552L111.267 87.28C111.379 88.16 112.179 88.496 113.507 88.496C114.867 88.496 115.619 88.112 115.619 87.392C115.619 86.176 109.171 87.504 109.171 84.416C109.171 82.128 112.403 81.888 113.523 81.888C115.203 81.888 117.603 82.544 117.683 84.304L115.667 84.528C115.555 83.776 114.835 83.504 113.475 83.504C112.179 83.504 111.459 83.728 111.459 84.512C111.459 85.712 117.907 84.384 117.907 87.44C117.907 89.888 114.595 90.096 113.427 90.096C112.355 90.096 109.155 89.744 109.027 87.552ZM123.033 86.624L124.969 82H127.465L123.561 91.136C122.873 92.928 121.481 93.296 120.553 93.296H118.137V91.616H119.337C119.753 91.616 120.969 91.488 121.225 90.816L121.529 89.888L118.121 82H120.617L122.553 86.624C122.729 86.96 122.793 87.424 122.793 87.792H122.825C122.825 87.424 122.889 86.96 123.033 86.624ZM130.898 83.952C131.538 82.496 132.85 81.872 133.938 81.872C136.146 81.872 137.074 83.632 137.074 86.352V90H134.802V86.336C134.802 84.928 134.082 84.16 133.09 84.16C132.146 84.16 130.706 84.704 130.706 87.008V90H128.418V82H130.706V83.904C130.706 84.24 130.642 84.672 130.578 84.992H130.61C130.674 84.672 130.754 84.224 130.898 83.952ZM141.035 81.952H144.315V83.824H141.915V87.28C141.915 87.984 142.283 88.128 142.779 88.128H144.715V90H142.459C140.235 90 139.643 88.912 139.643 86.768V83.824H138.027V81.952H138.507C139.339 81.952 140.171 80.464 140.171 79.216H142.459C142.443 79.392 142.427 79.584 142.395 79.776C142.315 80.112 142.203 80.544 141.947 80.944C141.707 81.28 141.323 81.584 141.003 81.776C140.699 81.92 140.267 81.984 139.947 82.032V82.064C140.267 82.016 140.699 81.952 141.035 81.952ZM148.244 83.472C148.964 82.336 150.212 81.872 151.54 81.872C153.524 81.872 155.06 83.408 155.06 86.112V90H152.772V86.112C152.772 84.816 152.02 83.872 150.66 83.872C149.668 83.872 147.956 84.624 147.956 87.008V90H145.668V78.8H147.956V83.392C147.956 83.76 147.892 84.24 147.78 84.576L147.812 84.592C147.924 84.224 148.036 83.776 148.244 83.472ZM165.547 86C165.547 86.24 165.531 86.24 165.515 86.448H158.155C158.267 87.072 158.571 87.552 159.035 87.872C159.483 88.208 160.187 88.368 160.827 88.368H160.955C161.579 88.368 162.091 88.304 162.491 88.112C162.875 87.92 163.259 87.6 163.451 87.072L165.547 87.184C165.339 88.352 164.651 89.072 163.819 89.504C162.987 89.952 161.995 90.096 160.891 90.096C158.267 90.096 156.027 88.768 156.027 86C156.027 83.232 158.267 81.904 160.891 81.904C163.515 81.904 165.547 83.248 165.547 86ZM160.955 83.536H160.859C160.267 83.536 159.467 83.728 158.955 84.176C158.443 84.64 158.155 85.36 158.155 86.256V86.448C158.171 85.872 158.331 85.664 158.571 85.456C158.811 85.248 159.211 85.168 159.547 85.168H163.435C163.259 84.592 163.019 84.224 162.619 83.952C162.219 83.68 161.595 83.536 160.955 83.536ZM166.511 87.552L168.751 87.28C168.863 88.16 169.663 88.496 170.991 88.496C172.351 88.496 173.103 88.112 173.103 87.392C173.103 86.176 166.655 87.504 166.655 84.416C166.655 82.128 169.887 81.888 171.007 81.888C172.687 81.888 175.087 82.544 175.167 84.304L173.151 84.528C173.039 83.776 172.319 83.504 170.959 83.504C169.663 83.504 168.943 83.728 168.943 84.512C168.943 85.712 175.391 84.384 175.391 87.44C175.391 89.888 172.079 90.096 170.911 90.096C169.839 90.096 166.639 89.744 166.511 87.552ZM178.659 80.656H176.355V78.8H178.659V80.656ZM176.387 82H178.627V90H176.387V82ZM184.533 83.792H179.765V82H188.037V83.76L183.029 87.856C182.757 88.064 182.325 88.256 181.989 88.384V88.416C182.325 88.288 182.805 88.208 183.173 88.208H188.085V90H179.621V88.288L184.677 84.144C184.933 83.952 185.381 83.744 185.717 83.616V83.584C185.349 83.712 184.901 83.792 184.533 83.792ZM198.078 86C198.078 86.24 198.062 86.24 198.046 86.448H190.686C190.798 87.072 191.102 87.552 191.566 87.872C192.014 88.208 192.718 88.368 193.358 88.368H193.486C194.11 88.368 194.622 88.304 195.022 88.112C195.406 87.92 195.79 87.6 195.982 87.072L198.078 87.184C197.87 88.352 197.182 89.072 196.35 89.504C195.518 89.952 194.526 90.096 193.422 90.096C190.798 90.096 188.558 88.768 188.558 86C188.558 83.232 190.798 81.904 193.422 81.904C196.046 81.904 198.078 83.248 198.078 86ZM193.486 83.536H193.39C192.798 83.536 191.998 83.728 191.486 84.176C190.974 84.64 190.686 85.36 190.686 86.256V86.448C190.702 85.872 190.862 85.664 191.102 85.456C191.342 85.248 191.742 85.168 192.078 85.168H195.966C195.79 84.592 195.55 84.224 195.15 83.952C194.75 83.68 194.126 83.536 193.486 83.536ZM205.009 82V83.856H202.481C201.585 83.856 201.409 84.048 201.409 85.152V90H199.121V84.288C199.121 82.72 199.777 82 201.409 82H205.009Z" fill="white"/>
</svg>
