<svg width="48" height="48" viewBox="0 0 48 48" fill="none" xmlns="http://www.w3.org/2000/svg">
<path d="M8.00019 29.7976C6.51427 28.2794 5.39333 26.443 4.72226 24.4274C4.05119 22.4119 3.8476 20.27 4.12691 18.1642C4.40622 16.0583 5.1611 14.0436 6.33438 12.2726C7.50766 10.5017 9.06856 9.02098 10.8989 7.94265C12.7292 6.86433 14.7808 6.21666 16.8985 6.04871C19.0162 5.88076 21.1443 6.19693 23.1217 6.97327C25.0991 7.74962 26.8739 8.96577 28.3117 10.5296C29.7494 12.0935 30.8124 13.964 31.4202 15.9996H35.0002C36.9312 15.9993 38.8111 16.6202 40.3622 17.7704C41.9132 18.9207 43.0532 20.5393 43.6137 22.3872C44.1742 24.235 44.1255 26.2142 43.4748 28.0323C42.8241 29.8504 41.6059 31.411 40.0002 32.4836" stroke="black" stroke-width="4" stroke-linecap="round" stroke-linejoin="round"/>
<path d="M32 34H14" stroke="black" stroke-width="4" stroke-linecap="round" stroke-linejoin="round"/>
<path d="M34 42H18" stroke="black" stroke-width="4" stroke-linecap="round" stroke-linejoin="round"/>
</svg>
