<svg width="48" height="48" viewBox="0 0 48 48" fill="none" xmlns="http://www.w3.org/2000/svg">
<path d="M35.0001 42H18.0001C15.4038 41.9993 12.8589 41.2767 10.6496 39.9129C8.4404 38.5491 6.65392 36.5979 5.48982 34.2772C4.32572 31.9566 3.82986 29.3579 4.05766 26.7716C4.28546 24.1854 5.22793 21.7134 6.77977 19.632C8.33161 17.5505 10.4317 15.9416 12.8453 14.985C15.2589 14.0284 17.891 13.7617 20.4474 14.2149C23.0038 14.6681 25.3838 15.8232 27.3215 17.5512C29.2592 19.2792 30.6783 21.512 31.4201 24H35.0001C36.182 24 37.3523 24.2328 38.4442 24.6851C39.5362 25.1374 40.5283 25.8003 41.364 26.636C42.1998 27.4718 42.8627 28.4639 43.315 29.5559C43.7673 30.6478 44.0001 31.8181 44.0001 33C44.0001 34.1819 43.7673 35.3522 43.315 36.4442C42.8627 37.5361 42.1998 38.5282 41.364 39.364C40.5283 40.1997 39.5362 40.8626 38.4442 41.3149C37.3523 41.7672 36.182 42 35.0001 42Z" stroke="black" stroke-width="4" stroke-linecap="round" stroke-linejoin="round"/>
<path d="M43.9999 20.0001C43.9999 18.4088 43.3677 16.8827 42.2425 15.7575C41.1173 14.6323 39.5912 14.0001 37.9999 14.0001H33.5859C32.9074 11.6128 31.4418 9.5249 29.427 8.07557C27.4123 6.62624 24.9667 5.90056 22.4875 6.01639C20.0083 6.13222 17.6411 7.08275 15.7703 8.71362C13.8994 10.3445 12.6348 12.5599 12.1819 15.0001" stroke="black" stroke-width="4" stroke-linecap="round" stroke-linejoin="round"/>
</svg>
