<svg width="48" height="48" viewBox="0 0 48 48" fill="none" xmlns="http://www.w3.org/2000/svg">
<path d="M11.9999 32.652C9.8924 31.6513 8.06838 30.1397 6.69366 28.2546C5.31893 26.3696 4.4371 24.1709 4.1283 21.8584C3.8195 19.5458 4.09354 17.1928 4.92549 15.0131C5.75745 12.8334 7.12095 10.8962 8.89207 9.37748C10.6632 7.85881 12.7858 6.80684 15.0669 6.31718C17.348 5.82752 19.7153 5.91571 21.9536 6.57372C24.192 7.23173 26.2304 8.43871 27.8836 10.0849C29.5369 11.7312 30.7525 13.7645 31.4199 16H34.9999C37.3029 15.996 39.5198 16.875 41.1943 18.456C42.8689 20.0371 43.8736 22.1999 44.0017 24.4993C44.1298 26.7987 43.3716 29.0597 41.8831 30.817C40.3946 32.5743 38.2891 33.6942 35.9999 33.946" stroke="black" stroke-width="4" stroke-linecap="round" stroke-linejoin="round"/>
<path d="M26 24L20 34H28L22 44" stroke="black" stroke-width="4" stroke-linecap="round" stroke-linejoin="round"/>
</svg>
