<svg width="48" height="48" viewBox="0 0 48 48" fill="none" xmlns="http://www.w3.org/2000/svg">
<path d="M24 4V8" stroke="black" stroke-width="4" stroke-linecap="round" stroke-linejoin="round"/>
<path d="M9.86011 9.85986L12.6801 12.6799" stroke="black" stroke-width="4" stroke-linecap="round" stroke-linejoin="round"/>
<path d="M40 24H44" stroke="black" stroke-width="4" stroke-linecap="round" stroke-linejoin="round"/>
<path d="M38.1401 9.85986L35.3201 12.6799" stroke="black" stroke-width="4" stroke-linecap="round" stroke-linejoin="round"/>
<path d="M31.8939 25.3001C32.1401 23.8091 31.9589 22.2789 31.3713 20.8866C30.7838 19.4943 29.8139 18.2969 28.574 17.4331C27.334 16.5692 25.8748 16.0742 24.3652 16.0054C22.8556 15.9365 21.3573 16.2967 20.0439 17.0441" stroke="black" stroke-width="4" stroke-linecap="round" stroke-linejoin="round"/>
<path d="M25.9999 44H13.9999C12.1079 43.9996 10.2547 43.4625 8.65576 42.4509C7.0568 41.4394 5.77761 39.995 4.96677 38.2855C4.15593 36.576 3.84672 34.6715 4.07504 32.7933C4.30336 30.915 5.05984 29.1401 6.25664 27.6747C7.45343 26.2092 9.04142 25.1133 10.8362 24.5143C12.6309 23.9154 14.5588 23.8378 16.3958 24.2908C18.2328 24.7437 19.9037 25.7085 21.2143 27.0731C22.5249 28.4377 23.4215 30.1462 23.7999 32H25.9999C27.5912 32 29.1173 32.6321 30.2426 33.7574C31.3678 34.8826 31.9999 36.4087 31.9999 38C31.9999 39.5913 31.3678 41.1174 30.2426 42.2426C29.1173 43.3679 27.5912 44 25.9999 44Z" stroke="black" stroke-width="4" stroke-linecap="round" stroke-linejoin="round"/>
</svg>
